<mxfile host="65bd71144e">
    <diagram name="Page-1" id="doDastdoEOmTKRFv8Jxt">
        <mxGraphModel dx="3954" dy="341" grid="1" gridSize="10" guides="0" tooltips="1" connect="1" arrows="1" fold="1" page="1" pageScale="1" pageWidth="1169" pageHeight="827" math="0" shadow="0">
            <root>
                <mxCell id="0"/>
                <mxCell id="1" parent="0"/>
                <mxCell id="LHvr_J-ciVx7S9QtgNXV-92" value="" style="endArrow=none;dashed=1;html=1;rounded=0;" parent="1" edge="1">
                    <mxGeometry width="50" height="50" relative="1" as="geometry">
                        <mxPoint x="-10" y="705" as="sourcePoint"/>
                        <mxPoint x="-10.339999999999918" y="30" as="targetPoint"/>
                    </mxGeometry>
                </mxCell>
                <mxCell id="402" style="edgeStyle=none;rounded=0;html=1;exitX=0.5;exitY=0;exitDx=0;exitDy=0;entryX=0;entryY=0.5;entryDx=0;entryDy=0;strokeWidth=2;fontFamily=Times New Roman;fontSize=15;endSize=5;" parent="1" source="101" target="401" edge="1">
                    <mxGeometry relative="1" as="geometry">
                        <Array as="points">
                            <mxPoint x="-3280" y="145"/>
                        </Array>
                    </mxGeometry>
                </mxCell>
                <mxCell id="101" value="&lt;font face=&quot;Times New Roman&quot;&gt;Pre_MAP&lt;/font&gt;" style="rounded=0;whiteSpace=wrap;html=1;" parent="1" vertex="1">
                    <mxGeometry x="-3320" y="165" width="80" height="250" as="geometry"/>
                </mxCell>
                <mxCell id="325" style="edgeStyle=none;rounded=0;html=1;entryX=0;entryY=0.5;entryDx=0;entryDy=0;exitX=1;exitY=0.25;exitDx=0;exitDy=0;" parent="1" source="102" target="235" edge="1">
                    <mxGeometry relative="1" as="geometry">
                        <mxPoint x="-3120" y="310" as="sourcePoint"/>
                        <Array as="points">
                            <mxPoint x="-3090" y="341"/>
                            <mxPoint x="-3090" y="310"/>
                        </Array>
                    </mxGeometry>
                </mxCell>
                <mxCell id="102" value="&lt;font face=&quot;Times New Roman&quot;&gt;ADDR_DEC&lt;/font&gt;" style="rounded=0;whiteSpace=wrap;html=1;" parent="1" vertex="1">
                    <mxGeometry x="-3190" y="320" width="70" height="85" as="geometry"/>
                </mxCell>
                <mxCell id="323" style="edgeStyle=none;rounded=0;html=1;exitX=1;exitY=0.75;exitDx=0;exitDy=0;" parent="1" source="235" edge="1">
                    <mxGeometry relative="1" as="geometry">
                        <mxPoint x="-3000" y="323" as="targetPoint"/>
                    </mxGeometry>
                </mxCell>
                <mxCell id="235" value="COS_LUT" style="rounded=0;whiteSpace=wrap;html=1;" parent="1" vertex="1">
                    <mxGeometry x="-3080" y="285" width="60" height="50" as="geometry"/>
                </mxCell>
                <mxCell id="324" style="edgeStyle=none;rounded=0;html=1;exitX=1;exitY=0.5;exitDx=0;exitDy=0;" parent="1" source="236" edge="1">
                    <mxGeometry relative="1" as="geometry">
                        <mxPoint x="-3000" y="379.66666666666674" as="targetPoint"/>
                    </mxGeometry>
                </mxCell>
                <mxCell id="236" value="SIN_LUT" style="rounded=0;whiteSpace=wrap;html=1;" parent="1" vertex="1">
                    <mxGeometry x="-3080" y="355" width="60" height="50" as="geometry"/>
                </mxCell>
                <mxCell id="303" value="&lt;font face=&quot;Times New Roman&quot;&gt;FSUB&lt;/font&gt;" style="rounded=0;whiteSpace=wrap;html=1;" parent="1" vertex="1">
                    <mxGeometry x="-3130" y="165" width="100" height="80" as="geometry"/>
                </mxCell>
                <mxCell id="366" style="edgeStyle=none;rounded=0;html=1;exitX=1;exitY=0.5;exitDx=0;exitDy=0;entryX=0;entryY=0.5;entryDx=0;entryDy=0;strokeWidth=2;fontFamily=Times New Roman;fontSize=15;endSize=5;" parent="1" source="304" target="305" edge="1">
                    <mxGeometry relative="1" as="geometry"/>
                </mxCell>
                <mxCell id="304" value="FMA" style="rounded=0;whiteSpace=wrap;html=1;" parent="1" vertex="1">
                    <mxGeometry x="-2930" y="225" width="70" height="90" as="geometry"/>
                </mxCell>
                <mxCell id="367" style="edgeStyle=none;rounded=0;html=1;exitX=1;exitY=0.5;exitDx=0;exitDy=0;entryX=0;entryY=0.5;entryDx=0;entryDy=0;strokeWidth=2;fontFamily=Times New Roman;fontSize=15;endSize=5;" parent="1" source="305" target="306" edge="1">
                    <mxGeometry relative="1" as="geometry"/>
                </mxCell>
                <mxCell id="305" value="FMA" style="rounded=0;whiteSpace=wrap;html=1;" parent="1" vertex="1">
                    <mxGeometry x="-2820" y="225" width="70" height="90" as="geometry"/>
                </mxCell>
                <mxCell id="368" style="edgeStyle=none;rounded=0;html=1;exitX=1;exitY=0.5;exitDx=0;exitDy=0;strokeWidth=2;fontFamily=Times New Roman;fontSize=15;endSize=5;entryX=-0.008;entryY=0.482;entryDx=0;entryDy=0;entryPerimeter=0;" parent="1" source="306" target="308" edge="1">
                    <mxGeometry relative="1" as="geometry"/>
                </mxCell>
                <mxCell id="306" value="FMA" style="rounded=0;whiteSpace=wrap;html=1;" parent="1" vertex="1">
                    <mxGeometry x="-2710" y="225" width="70" height="90" as="geometry"/>
                </mxCell>
                <mxCell id="308" value="&lt;font face=&quot;Times New Roman&quot;&gt;REV&lt;/font&gt;" style="rounded=0;whiteSpace=wrap;html=1;" parent="1" vertex="1">
                    <mxGeometry x="-2600" y="135" width="40" height="280" as="geometry"/>
                </mxCell>
                <mxCell id="317" value="" style="group" parent="1" vertex="1" connectable="0">
                    <mxGeometry x="-3000" y="305" width="50" height="100" as="geometry"/>
                </mxCell>
                <mxCell id="318" value="" style="endArrow=none;html=1;rounded=0;" parent="317" edge="1">
                    <mxGeometry width="50" height="50" relative="1" as="geometry">
                        <mxPoint as="sourcePoint"/>
                        <mxPoint x="30" y="21.428571428571427" as="targetPoint"/>
                    </mxGeometry>
                </mxCell>
                <mxCell id="319" value="" style="endArrow=none;html=1;rounded=0;" parent="317" edge="1">
                    <mxGeometry width="50" height="50" relative="1" as="geometry">
                        <mxPoint x="30" y="21.428571428571427" as="sourcePoint"/>
                        <mxPoint x="30" y="78.57142857142857" as="targetPoint"/>
                    </mxGeometry>
                </mxCell>
                <mxCell id="320" value="" style="endArrow=none;html=1;rounded=0;" parent="317" edge="1">
                    <mxGeometry width="50" height="50" relative="1" as="geometry">
                        <mxPoint x="30" y="78.57142857142857" as="sourcePoint"/>
                        <mxPoint y="100" as="targetPoint"/>
                    </mxGeometry>
                </mxCell>
                <mxCell id="321" value="" style="endArrow=none;html=1;rounded=0;" parent="317" edge="1">
                    <mxGeometry width="50" height="50" relative="1" as="geometry">
                        <mxPoint as="sourcePoint"/>
                        <mxPoint y="100" as="targetPoint"/>
                    </mxGeometry>
                </mxCell>
                <mxCell id="361" value="" style="endArrow=classic;html=1;rounded=0;strokeWidth=2;fontFamily=Times New Roman;fontSize=15;endSize=5;entryX=0;entryY=0.5;entryDx=0;entryDy=0;" parent="317" target="356" edge="1">
                    <mxGeometry width="50" height="50" relative="1" as="geometry">
                        <mxPoint x="30" y="55" as="sourcePoint"/>
                        <mxPoint x="70" y="40" as="targetPoint"/>
                    </mxGeometry>
                </mxCell>
                <mxCell id="369" value="MUX" style="text;html=1;align=center;verticalAlign=middle;resizable=0;points=[];autosize=1;strokeColor=none;fillColor=none;fontSize=15;fontFamily=Times New Roman;rotation=90;" parent="317" vertex="1">
                    <mxGeometry x="-10" y="30" width="60" height="30" as="geometry"/>
                </mxCell>
                <mxCell id="326" style="edgeStyle=none;rounded=0;html=1;entryX=0;entryY=0.5;entryDx=0;entryDy=0;" parent="1" edge="1">
                    <mxGeometry relative="1" as="geometry">
                        <mxPoint x="-3120" y="385" as="sourcePoint"/>
                        <mxPoint x="-3080" y="385" as="targetPoint"/>
                    </mxGeometry>
                </mxCell>
                <mxCell id="347" value="" style="group" parent="1" vertex="1" connectable="0">
                    <mxGeometry x="-3470" y="525" width="190" height="110" as="geometry"/>
                </mxCell>
                <mxCell id="345" value="" style="rounded=0;whiteSpace=wrap;html=1;fontFamily=Times New Roman;fontSize=20;" parent="347" vertex="1">
                    <mxGeometry width="190" height="110" as="geometry"/>
                </mxCell>
                <mxCell id="342" value="&lt;font face=&quot;Times New Roman&quot;&gt;&lt;span style=&quot;font-size: 20px;&quot;&gt;&lt;i&gt;D =&amp;nbsp; xm - xi;&lt;br&gt;M1 = C3*D+C2;&lt;br&gt;M2 = M1*D+C1;&lt;br&gt;M3 = M2*D+C0;&amp;nbsp;&lt;br&gt;&lt;br&gt;&lt;/i&gt;&lt;/span&gt;&lt;/font&gt;" style="text;html=1;align=center;verticalAlign=middle;resizable=0;points=[];autosize=1;strokeColor=none;fillColor=none;fontSize=13;fontFamily=Helvetica;" parent="347" vertex="1">
                    <mxGeometry x="10" y="7.8571428571428585" width="170" height="130" as="geometry"/>
                </mxCell>
                <mxCell id="348" value="&lt;font style=&quot;font-size: 15px;&quot;&gt;D&lt;/font&gt;" style="text;html=1;align=center;verticalAlign=middle;resizable=0;points=[];autosize=1;strokeColor=none;fillColor=none;fontSize=20;fontFamily=Times New Roman;" parent="1" vertex="1">
                    <mxGeometry x="-3030" y="160" width="30" height="40" as="geometry"/>
                </mxCell>
                <mxCell id="354" value="D_REG" style="rounded=0;whiteSpace=wrap;html=1;fontFamily=Times New Roman;fontSize=15;" parent="1" vertex="1">
                    <mxGeometry x="-2930" y="175" width="280" height="30" as="geometry"/>
                </mxCell>
                <mxCell id="356" value="C_REG" style="rounded=0;whiteSpace=wrap;html=1;fontFamily=Times New Roman;fontSize=15;" parent="1" vertex="1">
                    <mxGeometry x="-2950" y="345" width="310" height="30" as="geometry"/>
                </mxCell>
                <mxCell id="357" value="" style="endArrow=classic;html=1;rounded=0;strokeWidth=2;fontFamily=Times New Roman;fontSize=15;endSize=5;entryX=0;entryY=0.5;entryDx=0;entryDy=0;" parent="1" target="354" edge="1">
                    <mxGeometry width="50" height="50" relative="1" as="geometry">
                        <mxPoint x="-3030" y="190" as="sourcePoint"/>
                        <mxPoint x="-2950" y="165" as="targetPoint"/>
                    </mxGeometry>
                </mxCell>
                <mxCell id="358" value="" style="endArrow=classic;html=1;rounded=0;strokeWidth=2;fontFamily=Times New Roman;fontSize=15;endSize=5;entryX=0.5;entryY=0;entryDx=0;entryDy=0;exitX=0.125;exitY=0.983;exitDx=0;exitDy=0;exitPerimeter=0;" parent="1" source="354" target="304" edge="1">
                    <mxGeometry width="50" height="50" relative="1" as="geometry">
                        <mxPoint x="-2900" y="205" as="sourcePoint"/>
                        <mxPoint x="-2850" y="155" as="targetPoint"/>
                    </mxGeometry>
                </mxCell>
                <mxCell id="359" value="" style="endArrow=classic;html=1;rounded=0;strokeWidth=2;fontFamily=Times New Roman;fontSize=15;endSize=5;entryX=0.5;entryY=0;entryDx=0;entryDy=0;exitX=0.125;exitY=0.983;exitDx=0;exitDy=0;exitPerimeter=0;" parent="1" edge="1">
                    <mxGeometry width="50" height="50" relative="1" as="geometry">
                        <mxPoint x="-2790" y="205" as="sourcePoint"/>
                        <mxPoint x="-2790" y="225.51" as="targetPoint"/>
                    </mxGeometry>
                </mxCell>
                <mxCell id="360" value="" style="endArrow=classic;html=1;rounded=0;strokeWidth=2;fontFamily=Times New Roman;fontSize=15;endSize=5;entryX=0.5;entryY=0;entryDx=0;entryDy=0;exitX=0.125;exitY=0.983;exitDx=0;exitDy=0;exitPerimeter=0;" parent="1" edge="1">
                    <mxGeometry width="50" height="50" relative="1" as="geometry">
                        <mxPoint x="-2670" y="205" as="sourcePoint"/>
                        <mxPoint x="-2670" y="225.51" as="targetPoint"/>
                    </mxGeometry>
                </mxCell>
                <mxCell id="363" value="" style="endArrow=classic;html=1;rounded=0;strokeWidth=2;fontFamily=Times New Roman;fontSize=15;endSize=5;entryX=0.5;entryY=1;entryDx=0;entryDy=0;exitX=0.177;exitY=0;exitDx=0;exitDy=0;exitPerimeter=0;" parent="1" source="356" target="304" edge="1">
                    <mxGeometry width="50" height="50" relative="1" as="geometry">
                        <mxPoint x="-2890" y="345" as="sourcePoint"/>
                        <mxPoint x="-2830" y="285" as="targetPoint"/>
                    </mxGeometry>
                </mxCell>
                <mxCell id="364" value="" style="endArrow=classic;html=1;rounded=0;strokeWidth=2;fontFamily=Times New Roman;fontSize=15;endSize=5;entryX=0.5;entryY=1;entryDx=0;entryDy=0;exitX=0.12;exitY=0.007;exitDx=0;exitDy=0;exitPerimeter=0;" parent="1" edge="1">
                    <mxGeometry width="50" height="50" relative="1" as="geometry">
                        <mxPoint x="-2790" y="345.21000000000004" as="sourcePoint"/>
                        <mxPoint x="-2789.8" y="315" as="targetPoint"/>
                    </mxGeometry>
                </mxCell>
                <mxCell id="365" value="" style="endArrow=classic;html=1;rounded=0;strokeWidth=2;fontFamily=Times New Roman;fontSize=15;endSize=5;entryX=0.5;entryY=1;entryDx=0;entryDy=0;exitX=0.12;exitY=0.007;exitDx=0;exitDy=0;exitPerimeter=0;" parent="1" edge="1">
                    <mxGeometry width="50" height="50" relative="1" as="geometry">
                        <mxPoint x="-2670" y="345.21000000000004" as="sourcePoint"/>
                        <mxPoint x="-2669.8" y="315" as="targetPoint"/>
                    </mxGeometry>
                </mxCell>
                <mxCell id="370" value="" style="endArrow=classic;html=1;rounded=0;strokeWidth=2;fontFamily=Times New Roman;fontSize=15;endSize=5;entryX=0;entryY=0.25;entryDx=0;entryDy=0;" parent="1" target="101" edge="1">
                    <mxGeometry width="50" height="50" relative="1" as="geometry">
                        <mxPoint x="-3400" y="228" as="sourcePoint"/>
                        <mxPoint x="-3370" y="275" as="targetPoint"/>
                    </mxGeometry>
                </mxCell>
                <mxCell id="371" value="x" style="text;html=1;align=center;verticalAlign=middle;resizable=0;points=[];autosize=1;strokeColor=none;fillColor=none;fontSize=15;fontFamily=Times New Roman;" parent="1" vertex="1">
                    <mxGeometry x="-3380" y="205" width="30" height="30" as="geometry"/>
                </mxCell>
                <mxCell id="374" value="x_m" style="text;html=1;align=center;verticalAlign=middle;resizable=0;points=[];autosize=1;strokeColor=none;fillColor=none;fontSize=15;fontFamily=Times New Roman;" parent="1" vertex="1">
                    <mxGeometry x="-3235" y="195" width="50" height="30" as="geometry"/>
                </mxCell>
                <mxCell id="376" value="D" style="text;html=1;align=center;verticalAlign=middle;resizable=0;points=[];autosize=1;strokeColor=none;fillColor=none;fontSize=15;fontFamily=Times New Roman;" parent="1" vertex="1">
                    <mxGeometry x="-2895" y="200" width="30" height="30" as="geometry"/>
                </mxCell>
                <mxCell id="378" value="D" style="text;html=1;align=center;verticalAlign=middle;resizable=0;points=[];autosize=1;strokeColor=none;fillColor=none;fontSize=15;fontFamily=Times New Roman;" parent="1" vertex="1">
                    <mxGeometry x="-2785" y="200" width="30" height="30" as="geometry"/>
                </mxCell>
                <mxCell id="379" value="D" style="text;html=1;align=center;verticalAlign=middle;resizable=0;points=[];autosize=1;strokeColor=none;fillColor=none;fontSize=15;fontFamily=Times New Roman;" parent="1" vertex="1">
                    <mxGeometry x="-2665" y="200" width="30" height="30" as="geometry"/>
                </mxCell>
                <mxCell id="380" value="C2" style="text;html=1;align=center;verticalAlign=middle;resizable=0;points=[];autosize=1;strokeColor=none;fillColor=none;fontSize=15;fontFamily=Times New Roman;" parent="1" vertex="1">
                    <mxGeometry x="-2890" y="320" width="40" height="30" as="geometry"/>
                </mxCell>
                <mxCell id="381" value="C1" style="text;html=1;align=center;verticalAlign=middle;resizable=0;points=[];autosize=1;strokeColor=none;fillColor=none;fontSize=15;fontFamily=Times New Roman;" parent="1" vertex="1">
                    <mxGeometry x="-2790" y="320" width="40" height="30" as="geometry"/>
                </mxCell>
                <mxCell id="382" value="C0" style="text;html=1;align=center;verticalAlign=middle;resizable=0;points=[];autosize=1;strokeColor=none;fillColor=none;fontSize=15;fontFamily=Times New Roman;" parent="1" vertex="1">
                    <mxGeometry x="-2670" y="320" width="40" height="30" as="geometry"/>
                </mxCell>
                <mxCell id="384" value="" style="endArrow=classic;html=1;rounded=0;strokeWidth=2;fontFamily=Times New Roman;fontSize=15;endSize=5;exitX=0.022;exitY=0.051;exitDx=0;exitDy=0;exitPerimeter=0;" parent="1" source="356" edge="1">
                    <mxGeometry width="50" height="50" relative="1" as="geometry">
                        <mxPoint x="-2980" y="315" as="sourcePoint"/>
                        <mxPoint x="-2930" y="265" as="targetPoint"/>
                        <Array as="points">
                            <mxPoint x="-2943" y="265"/>
                        </Array>
                    </mxGeometry>
                </mxCell>
                <mxCell id="385" value="C3" style="text;html=1;align=center;verticalAlign=middle;resizable=0;points=[];autosize=1;strokeColor=none;fillColor=none;fontSize=15;fontFamily=Times New Roman;" parent="1" vertex="1">
                    <mxGeometry x="-2980" y="270" width="40" height="30" as="geometry"/>
                </mxCell>
                <mxCell id="390" value="" style="endArrow=classic;html=1;rounded=0;strokeWidth=2;fontFamily=Times New Roman;fontSize=15;endSize=5;" parent="1" edge="1">
                    <mxGeometry width="50" height="50" relative="1" as="geometry">
                        <mxPoint x="-3240" y="190" as="sourcePoint"/>
                        <mxPoint x="-3130" y="190" as="targetPoint"/>
                    </mxGeometry>
                </mxCell>
                <mxCell id="391" value="" style="endArrow=classic;html=1;rounded=0;strokeWidth=2;fontFamily=Times New Roman;fontSize=15;endSize=5;entryX=0;entryY=0.5;entryDx=0;entryDy=0;" parent="1" target="102" edge="1">
                    <mxGeometry width="50" height="50" relative="1" as="geometry">
                        <mxPoint x="-3230" y="190" as="sourcePoint"/>
                        <mxPoint x="-3230" y="365" as="targetPoint"/>
                        <Array as="points">
                            <mxPoint x="-3230" y="363"/>
                        </Array>
                    </mxGeometry>
                </mxCell>
                <mxCell id="392" value="x_m" style="text;html=1;align=center;verticalAlign=middle;resizable=0;points=[];autosize=1;strokeColor=none;fillColor=none;fontSize=15;fontFamily=Times New Roman;" parent="1" vertex="1">
                    <mxGeometry x="-3240" y="360" width="50" height="30" as="geometry"/>
                </mxCell>
                <mxCell id="393" value="" style="endArrow=classic;html=1;rounded=0;strokeWidth=2;fontFamily=Times New Roman;fontSize=15;endSize=5;" parent="1" edge="1">
                    <mxGeometry width="50" height="50" relative="1" as="geometry">
                        <mxPoint x="-3400" y="335" as="sourcePoint"/>
                        <mxPoint x="-3320" y="335" as="targetPoint"/>
                    </mxGeometry>
                </mxCell>
                <mxCell id="394" value="" style="rounded=0;whiteSpace=wrap;html=1;fontFamily=Times New Roman;fontSize=15;direction=west;" parent="1" vertex="1">
                    <mxGeometry x="-3420" y="185" width="20" height="270" as="geometry"/>
                </mxCell>
                <mxCell id="395" value="HUB" style="text;html=1;strokeColor=none;fillColor=none;align=center;verticalAlign=middle;whiteSpace=wrap;rounded=0;fontFamily=Times New Roman;fontSize=15;rotation=90;" parent="1" vertex="1">
                    <mxGeometry x="-3440" y="275" width="60" height="30" as="geometry"/>
                </mxCell>
                <mxCell id="397" value="sincos" style="text;html=1;align=center;verticalAlign=middle;resizable=0;points=[];autosize=1;strokeColor=none;fillColor=none;fontSize=15;fontFamily=Times New Roman;" parent="1" vertex="1">
                    <mxGeometry x="-3390" y="305" width="60" height="30" as="geometry"/>
                </mxCell>
                <mxCell id="403" style="edgeStyle=none;rounded=0;html=1;exitX=1;exitY=0.5;exitDx=0;exitDy=0;strokeWidth=2;fontFamily=Times New Roman;fontSize=15;endSize=5;" parent="1" source="401" edge="1">
                    <mxGeometry relative="1" as="geometry">
                        <mxPoint x="-2600" y="145" as="targetPoint"/>
                    </mxGeometry>
                </mxCell>
                <mxCell id="401" value="MAP_REG(1bit)" style="rounded=0;whiteSpace=wrap;html=1;fontFamily=Times New Roman;fontSize=15;" parent="1" vertex="1">
                    <mxGeometry x="-3180" y="135" width="560" height="20" as="geometry"/>
                </mxCell>
                <mxCell id="404" value="" style="endArrow=classic;html=1;rounded=0;strokeWidth=1;fontFamily=Times New Roman;fontSize=15;endSize=5;entryX=1.012;entryY=1.008;entryDx=0;entryDy=0;entryPerimeter=0;" parent="1" target="405" edge="1">
                    <mxGeometry width="50" height="50" relative="1" as="geometry">
                        <mxPoint x="-3470" y="215" as="sourcePoint"/>
                        <mxPoint x="-3330" y="265" as="targetPoint"/>
                    </mxGeometry>
                </mxCell>
                <mxCell id="405" value="i_sign" style="text;html=1;align=center;verticalAlign=middle;resizable=0;points=[];autosize=1;strokeColor=none;fillColor=none;fontSize=15;fontFamily=Times New Roman;" parent="1" vertex="1">
                    <mxGeometry x="-3480" y="185" width="60" height="30" as="geometry"/>
                </mxCell>
                <mxCell id="406" value="&lt;font face=&quot;Times New Roman&quot;&gt;SIN_LUT&lt;/font&gt;" style="rounded=0;whiteSpace=wrap;html=1;" parent="1" vertex="1">
                    <mxGeometry x="-3080" y="355" width="60" height="50" as="geometry"/>
                </mxCell>
                <mxCell id="408" value="" style="endArrow=classic;html=1;rounded=0;strokeWidth=2;fontFamily=Times New Roman;fontSize=15;endSize=5;exitX=1;exitY=0.5;exitDx=0;exitDy=0;entryX=0.994;entryY=0.975;entryDx=0;entryDy=0;entryPerimeter=0;" parent="1" source="308" edge="1">
                    <mxGeometry width="50" height="50" relative="1" as="geometry">
                        <mxPoint x="-2450" y="285" as="sourcePoint"/>
                        <mxPoint x="-2510.3599999999997" y="274.2499999999998" as="targetPoint"/>
                    </mxGeometry>
                </mxCell>
                <mxCell id="411" value="i_exp" style="text;html=1;align=center;verticalAlign=middle;resizable=0;points=[];autosize=1;strokeColor=none;fillColor=none;fontSize=15;fontFamily=Times New Roman;" parent="1" vertex="1">
                    <mxGeometry x="-3480" y="225" width="60" height="30" as="geometry"/>
                </mxCell>
                <mxCell id="412" value="i_frac" style="text;html=1;align=center;verticalAlign=middle;resizable=0;points=[];autosize=1;strokeColor=none;fillColor=none;fontSize=15;fontFamily=Times New Roman;" parent="1" vertex="1">
                    <mxGeometry x="-3480" y="265" width="60" height="30" as="geometry"/>
                </mxCell>
                <mxCell id="413" value="" style="endArrow=classic;html=1;rounded=0;strokeWidth=1;fontFamily=Times New Roman;fontSize=15;endSize=5;entryX=1;entryY=0.857;entryDx=0;entryDy=0;entryPerimeter=0;" parent="1" edge="1">
                    <mxGeometry width="50" height="50" relative="1" as="geometry">
                        <mxPoint x="-3470" y="255" as="sourcePoint"/>
                        <mxPoint x="-3420" y="255.02999999999997" as="targetPoint"/>
                    </mxGeometry>
                </mxCell>
                <mxCell id="415" value="" style="endArrow=classic;html=1;rounded=0;strokeWidth=1;fontFamily=Times New Roman;fontSize=15;endSize=5;entryX=1;entryY=0.857;entryDx=0;entryDy=0;entryPerimeter=0;" parent="1" edge="1">
                    <mxGeometry width="50" height="50" relative="1" as="geometry">
                        <mxPoint x="-3470" y="295" as="sourcePoint"/>
                        <mxPoint x="-3420" y="295.03" as="targetPoint"/>
                    </mxGeometry>
                </mxCell>
                <mxCell id="418" value="" style="endArrow=classic;html=1;rounded=0;strokeWidth=1;fontFamily=Times New Roman;fontSize=15;endSize=5;entryX=1;entryY=0.857;entryDx=0;entryDy=0;entryPerimeter=0;" parent="1" edge="1">
                    <mxGeometry width="50" height="50" relative="1" as="geometry">
                        <mxPoint x="-3470" y="335" as="sourcePoint"/>
                        <mxPoint x="-3420" y="335.03" as="targetPoint"/>
                    </mxGeometry>
                </mxCell>
                <mxCell id="419" value="i_sincos" style="text;html=1;align=center;verticalAlign=middle;resizable=0;points=[];autosize=1;strokeColor=none;fillColor=none;fontSize=15;fontFamily=Times New Roman;" parent="1" vertex="1">
                    <mxGeometry x="-3485" y="310" width="70" height="30" as="geometry"/>
                </mxCell>
                <mxCell id="420" value="" style="rounded=0;whiteSpace=wrap;html=1;fontFamily=Times New Roman;fontSize=15;direction=west;" parent="1" vertex="1">
                    <mxGeometry x="-2510" y="135" width="20" height="320" as="geometry"/>
                </mxCell>
                <mxCell id="422" value="HUB" style="text;html=1;strokeColor=none;fillColor=none;align=center;verticalAlign=middle;whiteSpace=wrap;rounded=0;fontFamily=Times New Roman;fontSize=15;rotation=90;" parent="1" vertex="1">
                    <mxGeometry x="-2530" y="255" width="60" height="30" as="geometry"/>
                </mxCell>
                <mxCell id="429" style="edgeStyle=none;rounded=0;html=1;exitX=1;exitY=0.5;exitDx=0;exitDy=0;strokeWidth=1;fontFamily=Times New Roman;fontSize=15;endSize=5;" parent="1" source="423" edge="1">
                    <mxGeometry relative="1" as="geometry">
                        <mxPoint x="-2510" y="445" as="targetPoint"/>
                    </mxGeometry>
                </mxCell>
                <mxCell id="423" value="VALID_REG" style="rounded=0;whiteSpace=wrap;html=1;fontFamily=Times New Roman;fontSize=15;" parent="1" vertex="1">
                    <mxGeometry x="-3360" y="435" width="800" height="20" as="geometry"/>
                </mxCell>
                <mxCell id="425" value="" style="endArrow=classic;html=1;rounded=0;strokeWidth=1;fontFamily=Times New Roman;fontSize=15;endSize=5;" parent="1" edge="1">
                    <mxGeometry width="50" height="50" relative="1" as="geometry">
                        <mxPoint x="-3470" y="365" as="sourcePoint"/>
                        <mxPoint x="-3420" y="365" as="targetPoint"/>
                    </mxGeometry>
                </mxCell>
                <mxCell id="426" value="i_valid" style="text;html=1;align=center;verticalAlign=middle;resizable=0;points=[];autosize=1;strokeColor=none;fillColor=none;fontSize=15;fontFamily=Times New Roman;" parent="1" vertex="1">
                    <mxGeometry x="-3485" y="340" width="70" height="30" as="geometry"/>
                </mxCell>
                <mxCell id="427" value="" style="endArrow=classic;html=1;rounded=0;strokeWidth=1;fontFamily=Times New Roman;fontSize=15;endSize=5;entryX=0;entryY=0.5;entryDx=0;entryDy=0;" parent="1" target="423" edge="1">
                    <mxGeometry width="50" height="50" relative="1" as="geometry">
                        <mxPoint x="-3400" y="445" as="sourcePoint"/>
                        <mxPoint x="-3320" y="435" as="targetPoint"/>
                    </mxGeometry>
                </mxCell>
                <mxCell id="428" value="valid" style="text;html=1;align=center;verticalAlign=middle;resizable=0;points=[];autosize=1;strokeColor=none;fillColor=none;fontSize=15;fontFamily=Times New Roman;" parent="1" vertex="1">
                    <mxGeometry x="-3410" y="420" width="50" height="30" as="geometry"/>
                </mxCell>
                <mxCell id="430" value="valid" style="text;html=1;align=center;verticalAlign=middle;resizable=0;points=[];autosize=1;strokeColor=none;fillColor=none;fontSize=15;fontFamily=Times New Roman;" parent="1" vertex="1">
                    <mxGeometry x="-2560" y="415" width="50" height="30" as="geometry"/>
                </mxCell>
                <mxCell id="432" value="i_sign" style="text;html=1;align=center;verticalAlign=middle;resizable=0;points=[];autosize=1;strokeColor=none;fillColor=none;fontSize=15;fontFamily=Times New Roman;" parent="1" vertex="1">
                    <mxGeometry x="-3480" y="185" width="60" height="30" as="geometry"/>
                </mxCell>
                <mxCell id="433" value="" style="endArrow=classic;html=1;rounded=0;strokeWidth=1;fontFamily=Times New Roman;fontSize=15;endSize=5;entryX=1;entryY=0.857;entryDx=0;entryDy=0;entryPerimeter=0;" parent="1" edge="1">
                    <mxGeometry width="50" height="50" relative="1" as="geometry">
                        <mxPoint x="-3470" y="255" as="sourcePoint"/>
                        <mxPoint x="-3420" y="255.02999999999997" as="targetPoint"/>
                    </mxGeometry>
                </mxCell>
                <mxCell id="434" value="" style="endArrow=classic;html=1;rounded=0;strokeWidth=1;fontFamily=Times New Roman;fontSize=15;endSize=5;entryX=1;entryY=0.857;entryDx=0;entryDy=0;entryPerimeter=0;" parent="1" edge="1">
                    <mxGeometry width="50" height="50" relative="1" as="geometry">
                        <mxPoint x="-2490" y="215" as="sourcePoint"/>
                        <mxPoint x="-2440" y="215.02999999999997" as="targetPoint"/>
                    </mxGeometry>
                </mxCell>
                <mxCell id="435" value="" style="endArrow=classic;html=1;rounded=0;strokeWidth=1;fontFamily=Times New Roman;fontSize=15;endSize=5;entryX=1;entryY=0.857;entryDx=0;entryDy=0;entryPerimeter=0;" parent="1" edge="1">
                    <mxGeometry width="50" height="50" relative="1" as="geometry">
                        <mxPoint x="-2490" y="175" as="sourcePoint"/>
                        <mxPoint x="-2440" y="175.02999999999997" as="targetPoint"/>
                    </mxGeometry>
                </mxCell>
                <mxCell id="436" value="" style="endArrow=classic;html=1;rounded=0;strokeWidth=1;fontFamily=Times New Roman;fontSize=15;endSize=5;entryX=1;entryY=0.857;entryDx=0;entryDy=0;entryPerimeter=0;" parent="1" edge="1">
                    <mxGeometry width="50" height="50" relative="1" as="geometry">
                        <mxPoint x="-2490" y="295" as="sourcePoint"/>
                        <mxPoint x="-2440" y="295.03" as="targetPoint"/>
                    </mxGeometry>
                </mxCell>
                <mxCell id="437" value="" style="endArrow=classic;html=1;rounded=0;strokeWidth=1;fontFamily=Times New Roman;fontSize=15;endSize=5;entryX=1;entryY=0.857;entryDx=0;entryDy=0;entryPerimeter=0;" parent="1" edge="1">
                    <mxGeometry width="50" height="50" relative="1" as="geometry">
                        <mxPoint x="-2490" y="255" as="sourcePoint"/>
                        <mxPoint x="-2440" y="255.02999999999997" as="targetPoint"/>
                    </mxGeometry>
                </mxCell>
                <mxCell id="438" value="o_sign" style="text;html=1;align=center;verticalAlign=middle;resizable=0;points=[];autosize=1;strokeColor=none;fillColor=none;fontSize=15;fontFamily=Times New Roman;" parent="1" vertex="1">
                    <mxGeometry x="-2490" y="150" width="60" height="30" as="geometry"/>
                </mxCell>
                <mxCell id="439" value="o_exp" style="text;html=1;align=center;verticalAlign=middle;resizable=0;points=[];autosize=1;strokeColor=none;fillColor=none;fontSize=15;fontFamily=Times New Roman;" parent="1" vertex="1">
                    <mxGeometry x="-2490" y="190" width="60" height="30" as="geometry"/>
                </mxCell>
                <mxCell id="440" value="o_frac" style="text;html=1;align=center;verticalAlign=middle;resizable=0;points=[];autosize=1;strokeColor=none;fillColor=none;fontSize=15;fontFamily=Times New Roman;" parent="1" vertex="1">
                    <mxGeometry x="-2490" y="225" width="60" height="30" as="geometry"/>
                </mxCell>
                <mxCell id="441" value="o_sincos" style="text;html=1;align=center;verticalAlign=middle;resizable=0;points=[];autosize=1;strokeColor=none;fillColor=none;fontSize=15;fontFamily=Times New Roman;" parent="1" vertex="1">
                    <mxGeometry x="-2500" y="270" width="80" height="30" as="geometry"/>
                </mxCell>
                <mxCell id="442" value="o_valid" style="text;html=1;align=center;verticalAlign=middle;resizable=0;points=[];autosize=1;strokeColor=none;fillColor=none;fontSize=15;fontFamily=Times New Roman;" parent="1" vertex="1">
                    <mxGeometry x="-2500" y="415" width="70" height="30" as="geometry"/>
                </mxCell>
                <mxCell id="443" value="" style="endArrow=classic;html=1;rounded=0;strokeWidth=1;fontFamily=Times New Roman;fontSize=15;endSize=5;exitX=0.158;exitY=1.011;exitDx=0;exitDy=0;exitPerimeter=0;" parent="1" source="442" edge="1">
                    <mxGeometry width="50" height="50" relative="1" as="geometry">
                        <mxPoint x="-2470" y="495" as="sourcePoint"/>
                        <mxPoint x="-2430" y="445" as="targetPoint"/>
                    </mxGeometry>
                </mxCell>
                <mxCell id="445" value="M1" style="text;html=1;strokeColor=none;fillColor=none;align=center;verticalAlign=middle;whiteSpace=wrap;rounded=0;fontFamily=Times New Roman;fontSize=15;" parent="1" vertex="1">
                    <mxGeometry x="-2870" y="245" width="60" height="30" as="geometry"/>
                </mxCell>
                <mxCell id="446" value="M2" style="text;html=1;strokeColor=none;fillColor=none;align=center;verticalAlign=middle;whiteSpace=wrap;rounded=0;fontFamily=Times New Roman;fontSize=15;" parent="1" vertex="1">
                    <mxGeometry x="-2760" y="245" width="60" height="30" as="geometry"/>
                </mxCell>
                <mxCell id="447" value="M3" style="text;html=1;strokeColor=none;fillColor=none;align=center;verticalAlign=middle;whiteSpace=wrap;rounded=0;fontFamily=Times New Roman;fontSize=15;" parent="1" vertex="1">
                    <mxGeometry x="-2650" y="235" width="60" height="30" as="geometry"/>
                </mxCell>
                <mxCell id="448" value="Pipe-Line Reg" style="rounded=0;whiteSpace=wrap;html=1;fontFamily=Times New Roman;fontSize=15;" parent="1" vertex="1">
                    <mxGeometry x="-3420" y="485" width="930" height="20" as="geometry"/>
                </mxCell>
                <mxCell id="455" value="SINCOS(x）= C0+D*(C1+D*(C2+D*C3)" style="rounded=0;whiteSpace=wrap;html=1;strokeWidth=1;fontFamily=Times New Roman;fontSize=15;fillColor=none;" parent="1" vertex="1">
                    <mxGeometry x="-2760" y="555" width="400" height="60" as="geometry"/>
                </mxCell>
                <mxCell id="456" value="&lt;font face=&quot;Times New Roman&quot;&gt;BIAS_DEC&lt;/font&gt;" style="rounded=0;whiteSpace=wrap;html=1;" parent="1" vertex="1">
                    <mxGeometry x="-3190" y="280" width="70" height="40" as="geometry"/>
                </mxCell>
                <mxCell id="458" value="" style="endArrow=classic;html=1;rounded=0;strokeWidth=2;fontFamily=Times New Roman;fontSize=15;endSize=5;entryX=0;entryY=0.5;entryDx=0;entryDy=0;" parent="1" target="456" edge="1">
                    <mxGeometry width="50" height="50" relative="1" as="geometry">
                        <mxPoint x="-3230" y="300" as="sourcePoint"/>
                        <mxPoint x="-3310" y="237.5" as="targetPoint"/>
                    </mxGeometry>
                </mxCell>
                <mxCell id="460" value="" style="endArrow=classic;html=1;rounded=0;strokeWidth=2;fontFamily=Times New Roman;fontSize=15;endSize=5;entryX=0;entryY=0.75;entryDx=0;entryDy=0;exitX=0.5;exitY=0;exitDx=0;exitDy=0;" parent="1" source="456" target="303" edge="1">
                    <mxGeometry width="50" height="50" relative="1" as="geometry">
                        <mxPoint x="-3220" y="303" as="sourcePoint"/>
                        <mxPoint x="-3180" y="302.5" as="targetPoint"/>
                        <Array as="points">
                            <mxPoint x="-3155" y="225"/>
                        </Array>
                    </mxGeometry>
                </mxCell>
                <mxCell id="462" value="x_i" style="text;html=1;strokeColor=none;fillColor=none;align=center;verticalAlign=middle;whiteSpace=wrap;rounded=0;fontFamily=Times New Roman;fontSize=15;" parent="1" vertex="1">
                    <mxGeometry x="-3200" y="240" width="60" height="30" as="geometry"/>
                </mxCell>
                <mxCell id="470" style="edgeStyle=none;html=1;exitX=1;exitY=0.5;exitDx=0;exitDy=0;fontFamily=Times New Roman;" edge="1" parent="1" source="463" target="469">
                    <mxGeometry relative="1" as="geometry"/>
                </mxCell>
                <mxCell id="463" value="&lt;font face=&quot;Times New Roman&quot;&gt;Dist_Map&lt;br&gt;&lt;/font&gt;" style="rounded=0;whiteSpace=wrap;html=1;" vertex="1" parent="1">
                    <mxGeometry x="-3200" y="880" width="80" height="80" as="geometry"/>
                </mxCell>
                <mxCell id="466" style="edgeStyle=none;html=1;exitX=0.993;exitY=0.266;exitDx=0;exitDy=0;entryX=0;entryY=0.5;entryDx=0;entryDy=0;exitPerimeter=0;" edge="1" parent="1" source="465" target="463">
                    <mxGeometry relative="1" as="geometry"/>
                </mxCell>
                <mxCell id="465" value="&lt;font face=&quot;Times New Roman&quot;&gt;Dist_Compress&lt;br&gt;&lt;/font&gt;" style="rounded=0;whiteSpace=wrap;html=1;" vertex="1" parent="1">
                    <mxGeometry x="-3330" y="880" width="80" height="150" as="geometry"/>
                </mxCell>
                <mxCell id="467" value="&lt;font face=&quot;Times New Roman&quot;&gt;x&lt;/font&gt;" style="text;html=1;align=center;verticalAlign=middle;resizable=0;points=[];autosize=1;strokeColor=none;fillColor=none;" vertex="1" parent="1">
                    <mxGeometry x="-3240" y="895" width="30" height="30" as="geometry"/>
                </mxCell>
                <mxCell id="482" style="edgeStyle=none;html=1;entryX=0;entryY=0.25;entryDx=0;entryDy=0;fontFamily=Times New Roman;fontSize=9;exitX=0.96;exitY=0.403;exitDx=0;exitDy=0;exitPerimeter=0;" edge="1" parent="1" source="469" target="481">
                    <mxGeometry relative="1" as="geometry"/>
                </mxCell>
                <mxCell id="469" value="Reg" style="rounded=0;whiteSpace=wrap;html=1;fontFamily=Times New Roman;" vertex="1" parent="1">
                    <mxGeometry x="-3080" y="880" width="30" height="80" as="geometry"/>
                </mxCell>
                <mxCell id="483" style="edgeStyle=none;html=1;exitX=1;exitY=0.5;exitDx=0;exitDy=0;fontFamily=Times New Roman;fontSize=9;entryX=0;entryY=0.923;entryDx=0;entryDy=0;entryPerimeter=0;" edge="1" parent="1" source="471" target="481">
                    <mxGeometry relative="1" as="geometry">
                        <mxPoint x="-3030" y="1000" as="targetPoint"/>
                    </mxGeometry>
                </mxCell>
                <mxCell id="471" value="Reg" style="rounded=0;whiteSpace=wrap;html=1;fontFamily=Times New Roman;" vertex="1" parent="1">
                    <mxGeometry x="-3080" y="960" width="30" height="80" as="geometry"/>
                </mxCell>
                <mxCell id="477" value="" style="endArrow=classic;html=1;fontFamily=Times New Roman;entryX=0;entryY=0.5;entryDx=0;entryDy=0;" edge="1" parent="1" target="471">
                    <mxGeometry width="50" height="50" relative="1" as="geometry">
                        <mxPoint x="-3250" y="1000" as="sourcePoint"/>
                        <mxPoint x="-3190" y="990" as="targetPoint"/>
                    </mxGeometry>
                </mxCell>
                <mxCell id="478" value="x" style="text;html=1;align=center;verticalAlign=middle;resizable=0;points=[];autosize=1;strokeColor=none;fillColor=none;fontFamily=Times New Roman;" vertex="1" parent="1">
                    <mxGeometry x="-3250" y="960" width="30" height="30" as="geometry"/>
                </mxCell>
                <mxCell id="479" value="&lt;span style=&quot;font-size: 7px;&quot;&gt;Bias&lt;/span&gt;" style="text;html=1;align=center;verticalAlign=middle;resizable=0;points=[];autosize=1;strokeColor=none;fillColor=none;fontFamily=Times New Roman;" vertex="1" parent="1">
                    <mxGeometry x="-3120" y="890" width="40" height="30" as="geometry"/>
                </mxCell>
                <mxCell id="492" style="edgeStyle=none;rounded=0;html=1;exitX=0.987;exitY=0.23;exitDx=0;exitDy=0;entryX=0;entryY=0.5;entryDx=0;entryDy=0;fontFamily=Times New Roman;fontSize=9;exitPerimeter=0;" edge="1" parent="1" source="481" target="490">
                    <mxGeometry relative="1" as="geometry"/>
                </mxCell>
                <mxCell id="481" value="&lt;font style=&quot;font-size: 9px;&quot;&gt;FSUB&lt;/font&gt;" style="rounded=0;whiteSpace=wrap;html=1;fontFamily=Times New Roman;fontSize=7;" vertex="1" parent="1">
                    <mxGeometry x="-3020" y="880" width="80" height="130" as="geometry"/>
                </mxCell>
                <mxCell id="502" style="edgeStyle=none;rounded=0;html=1;exitX=1;exitY=0.5;exitDx=0;exitDy=0;entryX=0;entryY=0.308;entryDx=0;entryDy=0;entryPerimeter=0;fontFamily=Times New Roman;fontSize=9;" edge="1" parent="1" source="488" target="489">
                    <mxGeometry relative="1" as="geometry"/>
                </mxCell>
                <mxCell id="488" value="Reg" style="rounded=0;whiteSpace=wrap;html=1;fontFamily=Times New Roman;" vertex="1" parent="1">
                    <mxGeometry x="-2840" y="880" width="30" height="80" as="geometry"/>
                </mxCell>
                <mxCell id="489" value="&lt;font style=&quot;font-size: 9px;&quot;&gt;FSUB(32it)&lt;br&gt;&lt;br&gt;&lt;/font&gt;" style="rounded=0;whiteSpace=wrap;html=1;fontFamily=Times New Roman;fontSize=7;" vertex="1" parent="1">
                    <mxGeometry x="-2780" y="880" width="60" height="130" as="geometry"/>
                </mxCell>
                <mxCell id="494" style="edgeStyle=none;rounded=0;html=1;exitX=1;exitY=0.5;exitDx=0;exitDy=0;entryX=-0.029;entryY=0.376;entryDx=0;entryDy=0;entryPerimeter=0;fontFamily=Times New Roman;fontSize=9;" edge="1" parent="1" source="490" target="488">
                    <mxGeometry relative="1" as="geometry"/>
                </mxCell>
                <mxCell id="490" value="X_i_CAL" style="rounded=0;whiteSpace=wrap;html=1;fontFamily=Times New Roman;fontSize=9;" vertex="1" parent="1">
                    <mxGeometry x="-2920" y="880" width="50" height="60" as="geometry"/>
                </mxCell>
                <mxCell id="503" style="edgeStyle=none;rounded=0;html=1;exitX=1;exitY=0.5;exitDx=0;exitDy=0;fontFamily=Times New Roman;fontSize=9;" edge="1" parent="1" source="496">
                    <mxGeometry relative="1" as="geometry">
                        <mxPoint x="-2780" y="985" as="targetPoint"/>
                    </mxGeometry>
                </mxCell>
                <mxCell id="505" style="edgeStyle=none;rounded=0;html=1;entryX=0;entryY=0.5;entryDx=0;entryDy=0;fontFamily=Times New Roman;fontSize=9;" edge="1" parent="1" target="504">
                    <mxGeometry relative="1" as="geometry">
                        <mxPoint x="-2800" y="990" as="sourcePoint"/>
                        <Array as="points">
                            <mxPoint x="-2800" y="1050"/>
                        </Array>
                    </mxGeometry>
                </mxCell>
                <mxCell id="496" value="Reg" style="rounded=0;whiteSpace=wrap;html=1;fontFamily=Times New Roman;" vertex="1" parent="1">
                    <mxGeometry x="-2840" y="960" width="30" height="50" as="geometry"/>
                </mxCell>
                <mxCell id="504" value="" style="rounded=0;whiteSpace=wrap;html=1;fontFamily=Times New Roman;fontSize=9;" vertex="1" parent="1">
                    <mxGeometry x="-2780" y="1020" width="60" height="60" as="geometry"/>
                </mxCell>
                <mxCell id="506" value="ZERO:&lt;br&gt;&amp;nbsp; &amp;nbsp;SIN(X) = 2*PI*X,&lt;br&gt;&amp;nbsp; &amp;nbsp;D = X;&lt;br&gt;frac(C0,C2,C3) = 0.000....0;&lt;br&gt;C1 = 2*PI;&lt;br&gt;&lt;br&gt;&lt;br&gt;&lt;br&gt;0.125:&lt;br&gt;SIN(PI/4) =COS(PI/4) = Z;&lt;br&gt;D =0.125;&lt;br&gt;frac(C0 ,C2 ,C3) = 0.000....0;&lt;br&gt;C1 = Z/0.125;" style="rounded=0;whiteSpace=wrap;html=1;strokeWidth=1;fontFamily=Times New Roman;fontSize=15;fillColor=none;" vertex="1" parent="1">
                    <mxGeometry x="-2300" y="370" width="400" height="300" as="geometry"/>
                </mxCell>
                <mxCell id="507" value="SINCOS(x）= C0+D*(C1+D*(C2+D*C3)" style="rounded=0;whiteSpace=wrap;html=1;strokeWidth=1;fontFamily=Times New Roman;fontSize=15;fillColor=none;" vertex="1" parent="1">
                    <mxGeometry x="-2300" y="260" width="400" height="60" as="geometry"/>
                </mxCell>
                <mxCell id="509" value="FMUL" style="rounded=0;whiteSpace=wrap;html=1;fontFamily=Times New Roman;fontSize=9;" vertex="1" parent="1">
                    <mxGeometry x="-2300" y="40" width="140" height="70" as="geometry"/>
                </mxCell>
                <mxCell id="510" value="FADD" style="rounded=0;whiteSpace=wrap;html=1;fontFamily=Times New Roman;fontSize=9;" vertex="1" parent="1">
                    <mxGeometry x="-2100" y="40" width="120" height="70" as="geometry"/>
                </mxCell>
                <mxCell id="512" value="" style="endArrow=classic;html=1;rounded=0;fontFamily=Times New Roman;fontSize=9;" edge="1" parent="1">
                    <mxGeometry width="50" height="50" relative="1" as="geometry">
                        <mxPoint x="-2360" y="50" as="sourcePoint"/>
                        <mxPoint x="-2300" y="50" as="targetPoint"/>
                    </mxGeometry>
                </mxCell>
                <mxCell id="513" value="" style="endArrow=classic;html=1;rounded=0;fontFamily=Times New Roman;fontSize=9;" edge="1" parent="1">
                    <mxGeometry width="50" height="50" relative="1" as="geometry">
                        <mxPoint x="-2160" y="60" as="sourcePoint"/>
                        <mxPoint x="-2100" y="60" as="targetPoint"/>
                    </mxGeometry>
                </mxCell>
                <mxCell id="514" value="" style="endArrow=classic;html=1;rounded=0;fontFamily=Times New Roman;fontSize=9;" edge="1" parent="1">
                    <mxGeometry width="50" height="50" relative="1" as="geometry">
                        <mxPoint x="-2360" y="90" as="sourcePoint"/>
                        <mxPoint x="-2300" y="90" as="targetPoint"/>
                    </mxGeometry>
                </mxCell>
                <mxCell id="515" value="" style="endArrow=classic;html=1;rounded=0;fontFamily=Times New Roman;fontSize=9;entryX=-0.005;entryY=0.722;entryDx=0;entryDy=0;entryPerimeter=0;" edge="1" parent="1" target="510">
                    <mxGeometry width="50" height="50" relative="1" as="geometry">
                        <mxPoint x="-2140" y="160" as="sourcePoint"/>
                        <mxPoint x="-2100" y="100" as="targetPoint"/>
                        <Array as="points">
                            <mxPoint x="-2140" y="90"/>
                        </Array>
                    </mxGeometry>
                </mxCell>
                <mxCell id="516" value="C0" style="text;html=1;align=center;verticalAlign=middle;resizable=0;points=[];autosize=1;strokeColor=none;fillColor=none;fontSize=9;fontFamily=Times New Roman;" vertex="1" parent="1">
                    <mxGeometry x="-2165" y="150" width="30" height="20" as="geometry"/>
                </mxCell>
            </root>
        </mxGraphModel>
    </diagram>
</mxfile>